<svg width="32" height="36" viewBox="0 0 32 36" fill="none" xmlns="http://www.w3.org/2000/svg">
<path d="M29.0766 11.5483L17.8142 23.288C17.4248 23.694 17.4467 24.3412 17.8628 24.7199L23.1243 29.5085C23.4524 29.807 23.938 29.8538 24.317 29.6233L30.6509 25.7716C30.9573 25.5853 31.1404 25.2493 31.131 24.8909L30.7978 12.2143C30.7745 11.3264 29.6915 10.9074 29.0766 11.5483Z" stroke="#65656A" stroke-width="1.7"/>
<path d="M0.918058 25.6978L1.32045 13.7871C1.35024 12.9056 2.42378 12.4915 3.03782 13.1248L20.5252 31.1602C20.9938 31.6435 20.8606 32.4425 20.2606 32.7477L16.0243 34.9023C15.7159 35.0592 15.3483 35.0454 15.0525 34.866L1.39898 26.5866C1.08974 26.3991 0.905847 26.0592 0.918058 25.6978Z" stroke="#65656A" stroke-width="1.7"/>
<path d="M14.9718 1.32861L4.03599 8.13175C3.50008 8.46514 3.40323 9.2055 3.83535 9.66552L14.6976 21.2289C15.0908 21.6476 15.7551 21.6497 16.151 21.2335L27.1537 9.66593C27.5905 9.20678 27.4955 8.46237 26.9574 8.12763L16.0282 1.32861C15.7048 1.12741 15.2952 1.12741 14.9718 1.32861Z" stroke="#65656A" stroke-width="1.7"/>
</svg>
