<svg width="35" height="35" viewBox="0 0 35 35" fill="none" xmlns="http://www.w3.org/2000/svg">
<path d="M13.3582 15.8522C13.2124 15.8376 13.0374 15.8376 12.877 15.8522C9.40615 15.7355 6.6499 12.8917 6.6499 9.39175C6.6499 5.81883 9.5374 2.91675 13.1249 2.91675C16.6978 2.91675 19.5999 5.81883 19.5999 9.39175C19.5853 12.8917 16.8291 15.7355 13.3582 15.8522Z" stroke="#65656A" stroke-width="1.8" stroke-linecap="round" stroke-linejoin="round"/>
<path d="M23.9308 5.83325C26.76 5.83325 29.035 8.12284 29.035 10.9374C29.035 13.6937 26.8475 15.9395 24.1204 16.0416C24.0037 16.027 23.8725 16.027 23.7412 16.0416" stroke="#65656A" stroke-width="1.8" stroke-linecap="round" stroke-linejoin="round"/>
<path d="M6.0668 21.2333C2.53763 23.5958 2.53763 27.4458 6.0668 29.7937C10.0772 32.477 16.6543 32.477 20.6647 29.7937C24.1939 27.4312 24.1939 23.5812 20.6647 21.2333C16.6689 18.5645 10.0918 18.5645 6.0668 21.2333Z" stroke="#65656A" stroke-width="1.8" stroke-linecap="round" stroke-linejoin="round"/>
<path d="M26.7456 29.1667C27.7956 28.948 28.7873 28.5251 29.6039 27.898C31.8789 26.1917 31.8789 23.3772 29.6039 21.6709C28.8019 21.0584 27.8248 20.6501 26.7894 20.4167" stroke="#65656A" stroke-width="1.8" stroke-linecap="round" stroke-linejoin="round"/>
</svg>
